<svg width="185" height="28" viewBox="0 0 185 28" fill="none" xmlns="http://www.w3.org/2000/svg">
<path d="M16.7439 19.9287H0V27.5155H12.3349C15.049 27.5155 16.7439 25.8206 16.7439 23.1065V19.9287Z" fill="#002334"/>
<path d="M11.6963 7.59337H28.4402V0H16.1032C13.3912 0 11.6963 1.69495 11.6963 4.40906V7.59337Z" fill="#FFB81C"/>
<path d="M0 17.5536H24.0355C26.7474 17.5536 28.4445 15.8587 28.4445 13.1467V9.9668H4.40906C1.69495 9.9668 0 11.6617 0 14.3759V17.5536Z" fill="#009CBD"/>
<path d="M100.638 14.5413V15.0072H105.668V16.1007C105.668 17.6316 104.673 18.642 103.146 18.642H99.4526C97.9216 18.642 96.9309 17.625 96.9309 16.1007V11.3111C96.9309 9.78016 97.926 8.76756 99.4526 8.76756H107.717V8.13113C107.725 7.81181 107.667 7.49434 107.548 7.1979C107.429 6.90145 107.251 6.63217 107.026 6.40632C106.8 6.18047 106.53 6.00272 106.234 5.88381C105.937 5.7649 105.62 5.70729 105.301 5.71446H99.4526C96.0189 5.71446 93.751 7.94086 93.751 11.3111V16.1007C93.751 19.4687 96.0189 21.6951 99.4526 21.6951H103.14C106.574 21.6951 108.839 19.4687 108.839 16.1007V12.1378H103.055C102.737 12.1318 102.422 12.19 102.127 12.3088C101.832 12.4276 101.565 12.6046 101.34 12.8292C101.116 13.0538 100.939 13.3213 100.82 13.6159C100.701 13.9105 100.643 14.226 100.649 14.5435" fill="#002334"/>
<path d="M55.3315 8.76208H61.16V21.6896H64.3377V8.76208H70.1443V5.70898H55.3315V8.76208Z" fill="#002334"/>
<path d="M47.9671 12.111H43.0288C42.0315 12.111 41.395 11.4549 41.395 10.4358C41.395 9.4166 42.0315 8.76268 43.0288 8.76268H51.8447V8.12625C51.8519 7.80692 51.7942 7.48946 51.6753 7.19301C51.5564 6.89657 51.3787 6.62729 51.1528 6.40143C50.927 6.17558 50.6577 5.99783 50.3612 5.87892C50.0648 5.76001 49.7473 5.70241 49.428 5.70958H43.0288C40.1244 5.70958 38.2173 7.57512 38.2173 10.4161C38.2173 13.257 40.1244 15.1204 43.0288 15.1204H47.9649C49.0475 15.1204 49.7254 15.7984 49.7254 16.87C49.7254 17.9416 49.0475 18.6196 47.9649 18.6196H38.5607V19.2561C38.555 19.5745 38.6137 19.8907 38.7333 20.1859C38.8528 20.4811 39.0308 20.749 39.2565 20.9737C39.4822 21.1984 39.751 21.3752 40.0467 21.4934C40.3424 21.6116 40.6589 21.6689 40.9773 21.6618H47.9758C50.9655 21.6618 52.936 19.7328 52.936 16.8503C52.936 13.9678 50.9436 12.0826 47.9758 12.0826" fill="#002334"/>
<path d="M84.978 13.742H76.7766V11.3056C76.7766 9.77468 77.7717 8.78395 79.2983 8.78395H82.4542C83.9851 8.78395 84.978 9.77905 84.978 11.3056V13.742ZM82.4542 5.70898H79.2983C75.8646 5.70898 73.5967 7.93538 73.5967 11.3056V21.6896H76.7766V16.7513H84.978V21.6896H88.1558V11.3056C88.1558 7.93538 85.8878 5.70898 82.4542 5.70898Z" fill="#002334"/>
<path d="M159.935 16.7536V5.88184H156.755V16.7951C156.755 19.7411 158.791 21.6919 161.82 21.6919H166.039C166.356 21.6978 166.672 21.6397 166.966 21.5209C167.261 21.4021 167.529 21.2251 167.753 21.0005C167.978 20.7759 168.155 20.5083 168.274 20.2138C168.392 19.9192 168.451 19.6037 168.445 19.2861V18.6497H161.811C160.667 18.6497 159.926 17.9083 159.926 16.7645" fill="#002334"/>
<path d="M130.162 16.3293C130.162 17.8121 129.208 18.7656 127.704 18.7656C126.199 18.7656 125.267 17.8121 125.267 16.3293V5.88184H122.09V16.3293C122.09 17.8121 121.136 18.7656 119.631 18.7656C118.127 18.7656 117.193 17.8121 117.193 16.3293V5.88184H114.015V16.3293C114.015 19.6558 116.239 21.8187 119.631 21.8187C120.409 21.829 121.178 21.6604 121.879 21.3259C122.581 20.9915 123.196 20.5001 123.677 19.8898C124.161 20.4923 124.774 20.9785 125.471 21.3123C126.168 21.6462 126.931 21.8193 127.704 21.8187C131.116 21.8187 133.342 19.6317 133.342 16.3293V5.88184H130.162V16.3293Z" fill="#002334"/>
<path d="M177.549 18.6388C176.405 18.6388 175.664 17.8974 175.664 16.7536V5.88184H172.493V16.7951C172.493 19.7411 174.527 21.6919 177.558 21.6919H181.774C182.092 21.6975 182.407 21.6391 182.702 21.5202C182.996 21.4013 183.264 21.2243 183.488 20.9998C183.713 20.7753 183.89 20.5078 184.009 20.2134C184.127 19.919 184.186 19.6036 184.18 19.2862V18.6497L177.549 18.6388Z" fill="#002334"/>
<path d="M149.211 5.88184H143.838C140.806 5.88184 138.772 7.87422 138.772 10.8398V16.7448C138.772 19.7104 140.785 21.6831 143.838 21.6831H149.22C149.537 21.6891 149.853 21.6309 150.148 21.5121C150.442 21.3933 150.71 21.2163 150.934 20.9917C151.159 20.7672 151.336 20.4996 151.455 20.205C151.573 19.9105 151.632 19.595 151.626 19.2774V18.641H143.838C142.692 18.641 141.95 17.8996 141.95 16.7558V15.2095H150.512V12.2199H141.941V10.8223C141.941 9.67633 142.683 8.93493 143.829 8.93493H151.626V8.30069C151.633 7.98222 151.576 7.66554 151.458 7.3697C151.34 7.07386 151.163 6.80497 150.938 6.57921C150.714 6.35345 150.445 6.17548 150.15 6.05601C149.855 5.93654 149.538 5.87804 149.22 5.88402" fill="#002334"/>
</svg>
