<?xml version="1.0" encoding="UTF-8"?>
<svg id="Layer_1" xmlns="http://www.w3.org/2000/svg" xmlns:xlink="http://www.w3.org/1999/xlink" version="1.1" viewBox="0 0 1164.2 327.4">
  <!-- Generator: Adobe Illustrator 29.5.0, SVG Export Plug-In . SVG Version: 2.1.0 Build 137)  -->
  <defs>
    <style>
      .st0 {
        fill: none;
      }

      .st1 {
        fill: #0c49b9;
      }

      .st2 {
        fill: #ffdc21;
      }

      .st3 {
        fill: #0dc2e9;
      }

      .st4 {
        clip-path: url(#clippath);
      }
    </style>
    <clipPath id="clippath">
      <rect class="st0" width="1164.2" height="327.4"/>
    </clipPath>
  </defs>
  <g class="st4">
    <g>
      <path class="st1" d="M732.3,242.3c-2.9-3.4-6.5-6.3-10.8-8.5-5.8-3-12.5-4.5-20-4.5s-16.9,2.1-24,6.4c-7.1,4.3-12.7,10.1-16.8,17.5-4.2,7.4-6.2,15.7-6.2,25s2,17.6,6.1,25c4.2,7.4,9.8,13.3,16.8,17.7,7.2,4.3,15.3,6.4,24.3,6.4h0c7.2,0,13.8-1.5,19.8-4.5s8.6-5.6,11.6-9.6v12h18.6v-131.4h-19.4v48.4ZM728.4,294.2c-2.4,4.6-5.8,8.3-10.2,10.9-4.3,2.7-9.1,4-14.6,4s-10.5-1.3-14.9-4c-4.3-2.7-7.6-6.3-10.1-10.9-2.4-4.7-3.7-10.1-3.7-16s1.2-11.2,3.7-15.8,5.8-8.3,10.2-10.9c4.4-2.7,9.3-4,14.8-4s10.3,1.3,14.6,4c4.4,2.7,7.8,6.3,10.2,10.9,2.5,4.6,3.8,9.9,3.8,15.8s-1.3,11.2-3.8,16Z"/>
      <path class="st1" d="M616,286.7c0,4.5-.9,8.5-2.8,11.8-1.7,3.4-4.2,6-7.3,7.8s-6.9,2.8-10.9,2.8-7.6-.9-10.8-2.6c-3.1-1.8-5.6-4.4-7.3-7.6-1.7-3.2-2.6-7-2.6-11.3v-56.2h-19.6v58c0,7.5,1.5,14.2,4.3,20,3,5.7,7.2,10.1,12.5,13.4,5.3,3.1,11.5,4.7,18.6,4.7h0c6.8,0,12.8-1.6,17.9-4.7,3.7-2.3,6.7-5.3,8.9-9v11.6h18.6v-93.9h-19.4v55.4Z"/>
      <path class="st1" d="M513.3,235.7c-7.3-4.3-15.7-6.4-24.8-6.4s-17.4,2.1-24.8,6.4c-7.4,4.2-13.3,9.9-17.7,17.4-4.4,7.3-6.6,15.8-6.6,25.2s2.2,17.8,6.6,25.2c4.4,7.4,10.3,13.2,17.7,17.5,7.5,4.3,15.8,6.4,24.8,6.4h0c9,0,17.2-2.1,24.6-6.2,7.4-4.3,13.3-10.1,17.7-17.5,4.4-7.4,6.6-15.9,6.6-25.4s-2.2-17.9-6.6-25.2c-4.3-7.4-10.1-13.2-17.5-17.4ZM513.3,294.2c-2.4,4.6-5.8,8.3-10.1,10.9-4.3,2.7-9.2,4-14.8,4s-10.4-1.3-14.8-4c-4.3-2.7-7.7-6.3-10.2-10.9-2.4-4.7-3.6-10.1-3.6-16s1.2-11.2,3.6-15.8c2.5-4.6,6-8.3,10.2-10.9,4.4-2.7,9.2-4,14.8-4s10.5,1.3,14.8,4,7.6,6.3,10.1,10.9c2.5,4.6,3.8,9.9,3.8,15.8s-1.3,11.2-3.8,16Z"/>
      <path class="st1" d="M420.2,193.8h-19.6v131.4h19.6v-131.4Z"/>
      <path class="st1" d="M305.1,218.5c6.6-4.1,14.2-6.1,22.7-6.1s15.9,2.2,21.9,6.6c6.1,4.3,10.6,9.9,13.4,16.8l18.4-8.7c-2.2-5.9-5.8-11.3-10.8-16.3-5-5.1-11.1-9.2-18.4-12.3-7.2-3.1-15.2-4.7-24.5-4.7s-17.8,1.7-25.5,5c-7.7,3.2-14.5,7.9-20.3,13.9-5.8,5.9-10.3,13-13.5,21.2-3.1,8.1-4.7,16.8-4.7,26.6s1.6,18.6,4.9,26.7c3.2,8.1,7.7,15.2,13.4,21.2,5.8,5.9,12.6,10.5,20.3,13.9,7.9,3.4,16.4,5,25.5,5h0c9.1,0,17.3-1.5,24.5-4.7,7.3-3.1,13.4-7.2,18.4-12.3,5-5.1,8.6-10.5,10.8-16.3l-18.4-8.7c-2.8,6.9-7.2,12.6-13.4,16.8-6,4.3-13.3,6.4-21.9,6.4s-16.1-2-22.7-5.9c-6.6-4.1-11.7-9.7-15.5-16.8-3.6-7.3-5.4-15.8-5.4-25.3s1.8-18,5.4-25.2c3.7-7.2,8.9-12.8,15.5-16.8Z"/>
      <path class="st1" d="M1145.7,37.5v12.1c-3.1-4-6.9-7.2-11.3-9.5-5.6-3.1-11.9-4.7-19.1-4.7s-16.6,2-23.4,6.1c-6.8,4-12.3,9.5-16.3,16.5-3.9,6.9-5.9,15-5.9,23.8s2,16.7,5.9,23.8c4.1,7.1,9.6,12.6,16.5,16.7,6.9,4,14.8,6.1,23.4,6.1s13.6-1.6,19.3-4.7c4-2.1,7.3-5,10.1-8.5v11.9c0,5.1-1.2,9.4-3.5,13-2.3,3.7-5.5,6.5-9.4,8.3-3.9,2-8.4,3-13.4,3s-11.7-1.5-16.1-4.3c-4.3-2.9-7.2-6.5-8.9-10.9l-18.1,7.5c2.1,5.2,5.2,9.7,9.4,13.5,4.2,3.9,9.1,7,14.9,9.2,5.8,2.2,12.1,3.3,18.9,3.3h0c8.9,0,16.8-1.9,23.6-5.6,6.8-3.7,12.2-8.8,16-15.3,3.9-6.4,5.9-13.6,5.9-21.7V37.5h-18.6ZM1141.1,96.3c-2.3,4.2-5.5,7.5-9.6,10.1-4,2.4-8.7,3.6-13.9,3.6s-10.1-1.2-14.2-3.6c-4.2-2.5-7.5-6-9.9-10.2-2.3-4.3-3.5-8.8-3.5-14.2s1.2-10.2,3.5-14.4c2.4-4.3,5.7-7.6,9.9-10.1,4.2-2.6,9.2-3.8,14.2-3.8s9.7,1.3,13.7,3.8c4,2.4,7.3,5.8,9.7,10.1s3.7,9.1,3.7,14.4-1.2,10.1-3.7,14.4Z"/>
      <path class="st1" d="M1035.4,39.9c-5.3-3-11.7-4.5-18.4-4.5s-12.6,1.6-17.7,4.7c-3.7,2.2-6.6,5.1-8.8,8.8v-11.4h-18.8v93.9h19.6v-55.4c0-4.6.9-8.6,2.6-12,1.7-3.4,4.2-5.9,7.3-7.6,3.2-1.9,6.9-2.8,10.9-2.8s7.6.9,10.8,2.8c3.2,1.7,5.7,4.3,7.5,7.6,1.7,3.2,2.6,7.2,2.6,12v55.4h19.4v-60.6c0-6.9-1.5-13.1-4.5-18.4s-7.2-9.5-12.5-12.5Z"/>
      <path class="st1" d="M948.8,2.1h-19.6v22.6h19.6V2.1Z"/>
      <path class="st1" d="M948.8,37.5h-19.6v93.9h19.6V37.5Z"/>
      <path class="st1" d="M903.6,115.1c-3.7,0-6.7-.6-9-1.7-2.3-1.3-4-3-5-5.2-1-2.3-1.6-5.1-1.6-8.3v-44.6h21.3v-17.7h-21.3V16h-19.6v7.3c0,4.4-1.2,7.9-3.7,10.4-2.4,2.6-5.8,3.8-10.2,3.8h-2.6v17.7h16.5v45.5c0,10.1,2.7,17.9,8.2,23.4,5.4,5.5,13.1,8.3,22.9,8.3h0c1.5,0,3.2-.1,5.2-.4,2-.2,3.8-.5,5.4-.7v-16.8c-1,.1-2.1.2-3.3.3-1.2.1-2.2.2-3.1.2Z"/>
      <path class="st1" d="M827.8,49.1c-3.8-4.3-8.5-7.6-14.1-10.1-5.5-2.4-11.9-3.7-18.9-3.7s-16.7,2.1-23.6,6.4c-6.9,4.2-12.5,9.9-16.7,17.2-4,7.3-6.1,15.9-6.1,25.2s2,17.7,6.1,25.2c4,7.4,9.7,13.3,16.8,17.7,7.3,4.3,15.6,6.4,25,6.4h0c6.4,0,12.2-1,17.5-2.9,5.4-2.1,10.1-4.9,13.9-8.3,3.9-3.6,6.8-7.6,8.7-12l-16-7.8c-2.3,4.1-5.5,7.3-9.6,9.9-3.9,2.6-8.9,3.8-14.4,3.8s-10.5-1.3-14.9-4c-4.3-2.7-7.6-6.4-10.1-11.1-1.6-3.3-2.5-6.9-2.7-11h69.9c.3-1.4.6-2.9.7-4.5.1-1.6.2-3.2.2-4.7,0-6.1-1-11.9-3.1-17.4-2-5.4-4.9-10.2-8.7-14.4ZM771.6,67c2.2-4.9,5.3-8.6,9.4-11.1,4-2.7,8.7-4,13.9-4s9.7,1.3,13.5,4c3.9,2.5,6.8,6.1,8.7,10.6,1.1,2.5,1.7,5.1,1.8,8h-49.5c.4-2.7,1.2-5.2,2.2-7.5Z"/>
      <path class="st1" d="M675.1,102.9l14.1-15,28.8,43.5h22.6l-37-56.2,35.4-37.7h-24.5l-39.4,40.9V0h-19.6v131.4h19.6v-28.5Z"/>
      <path class="st1" d="M619.7,40.5c-3.5,2-6.3,5-8.3,9.1v-12h-18.8v93.9h19.6v-54.2c0-7.4,2-13.1,5.9-17,3.9-3.9,9.3-6.1,15.8-6.1h8.2v-17.9h-5.7c-6.5,0-12,1.4-16.7,4.2Z"/>
      <path class="st1" d="M569.7,131.4v-63.2c0-6.5-1.6-12.1-4.9-17-3.1-5-7.6-8.8-13.4-11.6-5.7-2.8-12.2-4.2-19.6-4.2s-11.5,1-16.8,3c-5.2,2-9.8,4.7-13.7,8.3-3.9,3.5-6.8,7.5-8.5,12.2l16.3,8.2c1.9-4.3,4.7-7.8,8.5-10.4,3.9-2.8,8.5-4.2,13.7-4.2s10.2,1.5,13.5,4.5c3.5,2.9,5.2,6.7,5.2,11.3v3.6l-29.9,4.9c-7.2,1.2-13.1,3.1-17.9,5.9-4.8,2.8-8.3,6.2-10.6,10.2-2.2,4.1-3.3,8.6-3.3,13.7s1.3,10.2,4,14.2c2.7,3.9,6.4,7.1,11.1,9.4,4.9,2.2,10.5,3.3,16.8,3.3h0c5.3,0,10.1-.7,14.4-2.2,4.4-1.5,8.3-3.6,11.6-6.4,1.6-1.3,3.1-2.8,4.5-4.3v10.9h18.8ZM546.7,105.4c-2.2,3.8-5.3,6.9-9.4,9.2-3.9,2.3-8.6,3.5-13.9,3.5s-7.8-1.1-10.6-3.3c-2.7-2.3-4-5.1-4-8.8s1.2-6.7,3.7-9c2.4-2.4,6.2-4.1,11.5-5l26-4.5v5.1c0,4.7-1.1,9.1-3.3,13Z"/>
      <path class="st1" d="M362.9,131.4V37.7l41,57.2h2.1l41.1-56.2v92.7h20.3V2.1h-19.1l-43,60.7L361.5,2.1h-19.1v129.3h20.5Z"/>
      <path class="st1" d="M265.3,130.6c5.4-2.1,10.1-4.9,13.9-8.3,3.9-3.6,6.8-7.6,8.7-12l-16-7.8c-2.3,4.1-5.5,7.3-9.5,9.9-3.9,2.6-8.9,3.8-14.4,3.8s-10.5-1.3-14.9-4c-4.3-2.7-7.6-6.4-10.1-11.1-1.6-3.3-2.5-6.9-2.7-11h69.9c.3-1.4.6-2.9.7-4.5.1-1.6.2-3.2.2-4.7,0-6.1-1-11.9-3.1-17.4-2-5.4-4.9-10.2-8.7-14.4-3.8-4.3-8.5-7.6-14.1-10.1-5.5-2.4-11.9-3.7-18.9-3.7s-16.7,2.1-23.6,6.4c-6.9,4.2-12.5,9.9-16.7,17.2-4.1,7.3-6.1,15.9-6.1,25.2s2,17.7,6.1,25.2c4.1,7.4,9.7,13.3,16.8,17.7,7.3,4.3,15.6,6.4,25,6.4h0c6.4,0,12.2-1,17.5-2.9ZM222.9,67c2.2-4.9,5.3-8.6,9.4-11.1,4.1-2.7,8.7-4,13.9-4s9.7,1.3,13.5,4c3.9,2.5,6.8,6.1,8.7,10.6,1.1,2.5,1.7,5.1,1.8,8h-49.5c.4-2.7,1.2-5.2,2.2-7.5h0Z"/>
      <path class="st1" d="M165.6,39.9c-5.3-3-11.7-4.5-18.4-4.5s-12.6,1.6-17.7,4.7c-3.2,1.9-5.9,4.4-8,7.4V0h-19.6v131.4h19.6v-55.4c0-4.6.9-8.6,2.6-12,1.8-3.4,4.3-5.9,7.5-7.6,3.2-1.8,6.7-2.8,10.8-2.8s7.6.9,10.8,2.8c3.1,1.7,5.6,4.3,7.3,7.6,1.9,3.2,2.8,7.2,2.8,12v55.4h19.4v-60.8c0-6.8-1.5-12.9-4.5-18.2-3-5.3-7.2-9.5-12.5-12.5Z"/>
      <path class="st1" d="M0,20.3h34.4v111.1h20.3V20.3h33.9V2.1H0v18.2Z"/>
      <path class="st3" d="M112,178.4c12.1,0,21.8,10.3,21.8,23.1v123.9h-64.6v-123.9c0-12.8,9.8-23.1,21.8-23.1h21,0Z"/>
      <path class="st1" d="M176,196c14.4,0,26.1,12.4,26.1,27.8v101.6h-56.8v-129.3h30.8Z"/>
      <path class="st2" d="M57.9,207.8v117.6H1.1v-89.8c0-15.3,11.7-27.8,26.1-27.8h30.8,0Z"/>
    </g>
  </g>
</svg>